<svg width="10" height="10" viewBox="0 0 10 10" fill="none" xmlns="http://www.w3.org/2000/svg">
<path d="M5.71429 0C4.57764 0 3.48756 0.526784 2.68383 1.46447C1.8801 2.40215 1.42857 3.67392 1.42857 5H0L1.85238 7.16111L1.88571 7.23889L3.80952 5H2.38095C2.38095 3.9686 2.73214 2.97945 3.35726 2.25014C3.98238 1.52083 4.83023 1.11111 5.71429 1.11111C6.59834 1.11111 7.44619 1.52083 8.07131 2.25014C8.69643 2.97945 9.04762 3.9686 9.04762 5C9.04762 6.0314 8.69643 7.02055 8.07131 7.74986C7.44619 8.47917 6.59834 8.88889 5.71429 8.88889C4.79524 8.88889 3.96191 8.45 3.3619 7.74445L2.68571 8.53333C3.4619 9.44445 4.52381 10 5.71429 10C6.85093 10 7.94102 9.47322 8.74474 8.53553C9.54847 7.59785 10 6.32608 10 5C10 3.67392 9.54847 2.40215 8.74474 1.46447C7.94102 0.526784 6.85093 0 5.71429 0Z" fill="#F49F20"/>
</svg>
