<svg width="43" height="34" viewBox="0 0 43 34" fill="none" xmlns="http://www.w3.org/2000/svg">
<path d="M30.1 29.4667V34H0V29.4667C0 29.4667 0 20.4 15.05 20.4C30.1 20.4 30.1 29.4667 30.1 29.4667ZM22.575 7.93342C22.575 6.36437 22.1337 4.83054 21.3068 3.52592C20.48 2.22129 19.3047 1.20446 17.9297 0.604006C16.5547 0.00355335 15.0417 -0.153553 13.5819 0.152556C12.1222 0.458664 10.7814 1.21424 9.72902 2.32373C8.67663 3.43322 7.95995 4.8468 7.66959 6.38571C7.37924 7.92462 7.52826 9.51975 8.09781 10.9694C8.66736 12.419 9.63186 13.658 10.8693 14.5297C12.1068 15.4015 13.5617 15.8667 15.05 15.8667C17.0458 15.8667 18.9598 15.0309 20.371 13.5431C21.7822 12.0553 22.575 10.0375 22.575 7.93342ZM29.971 20.4C31.2927 21.4784 32.3742 22.849 33.1394 24.4155C33.9046 25.9819 34.3349 27.7061 34.4 29.4667V34H43V29.4667C43 29.4667 43 21.2387 29.971 20.4ZM27.95 0.000119179C26.4701 -0.00856828 25.0228 0.457884 23.8005 1.33745C25.1065 3.26124 25.8087 5.56768 25.8087 7.93342C25.8087 10.2992 25.1065 12.6056 23.8005 14.5294C25.0228 15.409 26.4701 15.8754 27.95 15.8667C29.9458 15.8667 31.8598 15.0309 33.271 13.5431C34.6822 12.0553 35.475 10.0375 35.475 7.93342C35.475 5.82938 34.6822 3.81151 33.271 2.32373C31.8598 0.835948 29.9458 0.000119179 27.95 0.000119179Z" fill="#2FA8FF"/>
</svg>
