<svg width="20" height="18" viewBox="0 0 20 18" fill="none" xmlns="http://www.w3.org/2000/svg">
<path d="M2.76469 2.41177H5.49999L7.32352 0.529419H12.7941L14.6176 2.41177H17.3529C17.8366 2.41177 18.3004 2.61009 18.6424 2.9631C18.9843 3.31611 19.1765 3.79489 19.1765 4.29413V15.5882C19.1765 16.0875 18.9843 16.5663 18.6424 16.9193C18.3004 17.2723 17.8366 17.4706 17.3529 17.4706H2.76469C2.28106 17.4706 1.81724 17.2723 1.47526 16.9193C1.13328 16.5663 0.941162 16.0875 0.941162 15.5882V4.29413C0.941162 3.79489 1.13328 3.31611 1.47526 2.9631C1.81724 2.61009 2.28106 2.41177 2.76469 2.41177V2.41177ZM10.0588 5.2353C8.84973 5.2353 7.69018 5.7311 6.83523 6.61362C5.98029 7.49615 5.49999 8.69311 5.49999 9.94118C5.49999 11.1893 5.98029 12.3862 6.83523 13.2687C7.69018 14.1513 8.84973 14.6471 10.0588 14.6471C11.2679 14.6471 12.4274 14.1513 13.2824 13.2687C14.1373 12.3862 14.6176 11.1893 14.6176 9.94118C14.6176 8.69311 14.1373 7.49615 13.2824 6.61362C12.4274 5.7311 11.2679 5.2353 10.0588 5.2353V5.2353ZM10.0588 7.11765C10.7843 7.11765 11.48 7.41513 11.993 7.94465C12.5059 8.47416 12.7941 9.19234 12.7941 9.94118C12.7941 10.69 12.5059 11.4082 11.993 11.9377C11.48 12.4672 10.7843 12.7647 10.0588 12.7647C9.33336 12.7647 8.63763 12.4672 8.12466 11.9377C7.6117 11.4082 7.32352 10.69 7.32352 9.94118C7.32352 9.19234 7.6117 8.47416 8.12466 7.94465C8.63763 7.41513 9.33336 7.11765 10.0588 7.11765V7.11765Z" fill="black"/>
</svg>
