<svg width="28" height="21" viewBox="0 0 28 21" fill="none" xmlns="http://www.w3.org/2000/svg">
<path d="M2.75625 2.33333H6.89062L9.64687 0H17.9156L20.6719 2.33333H24.8062C25.5373 2.33333 26.2383 2.57917 26.7552 3.01675C27.2721 3.45434 27.5625 4.04783 27.5625 4.66667V18.6667C27.5625 19.2855 27.2721 19.879 26.7552 20.3166C26.2383 20.7542 25.5373 21 24.8062 21H2.75625C2.02525 21 1.32418 20.7542 0.807287 20.3166C0.29039 19.879 0 19.2855 0 18.6667V4.66667C0 4.04783 0.29039 3.45434 0.807287 3.01675C1.32418 2.57917 2.02525 2.33333 2.75625 2.33333ZM13.7812 5.83333C11.9537 5.83333 10.2011 6.44791 8.90884 7.54188C7.6166 8.63584 6.89062 10.1196 6.89062 11.6667C6.89062 13.2138 7.6166 14.6975 8.90884 15.7915C10.2011 16.8854 11.9537 17.5 13.7812 17.5C15.6088 17.5 17.3614 16.8854 18.6537 15.7915C19.9459 14.6975 20.6719 13.2138 20.6719 11.6667C20.6719 10.1196 19.9459 8.63584 18.6537 7.54188C17.3614 6.44791 15.6088 5.83333 13.7812 5.83333ZM13.7812 8.16667C14.8778 8.16667 15.9293 8.53541 16.7047 9.19179C17.48 9.84817 17.9156 10.7384 17.9156 11.6667C17.9156 12.5949 17.48 13.4852 16.7047 14.1415C15.9293 14.7979 14.8778 15.1667 13.7812 15.1667C12.6847 15.1667 11.6332 14.7979 10.8578 14.1415C10.0825 13.4852 9.64687 12.5949 9.64687 11.6667C9.64687 10.7384 10.0825 9.84817 10.8578 9.19179C11.6332 8.53541 12.6847 8.16667 13.7812 8.16667Z" fill="#2FA8FF"/>
</svg>
